<?xml version="1.0" encoding="UTF-8" standalone="no"?>
<!-- Created with Inkscape (http://www.inkscape.org/) -->
<svg
   xmlns:dc="http://purl.org/dc/elements/1.1/"
   xmlns:cc="http://web.resource.org/cc/"
   xmlns:rdf="http://www.w3.org/1999/02/22-rdf-syntax-ns#"
   xmlns:svg="http://www.w3.org/2000/svg"
   xmlns="http://www.w3.org/2000/svg"
   xmlns:xlink="http://www.w3.org/1999/xlink"
   xmlns:sodipodi="http://inkscape.sourceforge.net/DTD/sodipodi-0.dtd"
   xmlns:inkscape="http://www.inkscape.org/namespaces/inkscape"
   id="svg2215"
   sodipodi:version="0.32"
   inkscape:version="0.43"
   width="210mm"
   height="297mm"
   sodipodi:docbase="/home/local_jqlowry/Research/Qucs/qucs-0.0.6/qucs/bitmaps"
   sodipodi:docname="vpluse.svg">
  <metadata
     id="metadata2220">
    <rdf:RDF>
      <cc:Work
         rdf:about="">
        <dc:format>image/svg+xml</dc:format>
        <dc:type
           rdf:resource="http://purl.org/dc/dcmitype/StillImage" />
      </cc:Work>
    </rdf:RDF>
  </metadata>
  <defs
     id="defs2218" />
  <sodipodi:namedview
     inkscape:window-height="551"
     inkscape:window-width="750"
     inkscape:pageshadow="2"
     inkscape:pageopacity="0.0"
     borderopacity="1.0"
     bordercolor="#666666"
     pagecolor="#ffffff"
     id="base"
     inkscape:zoom="0.35595873"
     inkscape:cx="617.95117"
     inkscape:cy="540.68109"
     inkscape:window-x="266"
     inkscape:window-y="31"
     inkscape:current-layer="svg2215" />
  <image
     xlink:href="vpulse1.png"
     sodipodi:absref="/home/local_jqlowry/Research/Qucs/qucs-0.0.6/qucs/bitmaps/vpulse1.png"
     width="1275.2328"
     height="1075.9674"
     id="image2222"
     x="0"
     y="-2.5544675e-12" />
  <path
     style="fill:none;fill-opacity:0.75;fill-rule:evenodd;stroke:#000000;stroke-width:15;stroke-linecap:butt;stroke-linejoin:miter;stroke-opacity:1;stroke-miterlimit:4;stroke-dasharray:none"
     d="M 474.88707,623.99059 C 480.17644,620.44891 527.15801,620.19211 541.61574,620.19211 C 557.19193,620.19211 574.79249,620.77035 592.98028,619.19994 C 606.29744,618.05007 605.24882,617.93963 635.24499,617.38581 C 648.31922,617.13616 637.90718,616.86966 671.38642,615.23123 C 679.77848,614.82053 673.06133,615.30084 690.34959,606.16062 C 697.86419,602.18769 698.25154,601.96407 707.35762,577.44591 C 710.5434,568.86818 714.75762,552.72414 718.41258,545.41422 C 723.64715,534.94509 727.27267,517.40057 729.63778,507.94015 C 732.36237,497.04178 735.18627,482.93987 738.05668,471.45826 C 739.34416,466.30833 740.83203,442.69888 741.85516,437.58323"
     id="path2224"
     sodipodi:nodetypes="csssssssssc" />
</svg>
